<?xml version="1.0" standalone="no"?> <!DOCTYPE svg PUBLIC "-//W3C//DTD SVG 1.0//EN" "http://www.w3.org/TR/2001/REC-SVG-20010904/DTD/svg10.dtd" > <svg xmlns="http://www.w3.org/2000/svg" width="100%" height="100%">
<defs >
<font id="FritzBold" horiz-adv-x="139" ><font-face
    font-family="Fritz"
    units-per-em="1000"
    panose-1="0 0 0 0 0 0 0 0 0 0"
    ascent="957"
    descent="-233"
    alphabetic="0" />
<missing-glyph horiz-adv-x="800" d="M50 0V800H750V0H50ZM700 50V750H100V50H700Z" />
<glyph unicode=" " glyph-name="space" horiz-adv-x="320" />
<glyph unicode="!" glyph-name="exclam" horiz-adv-x="340" d="M273 659L247 209H98L73 659H273ZM272 83Q272 42 244 15T174 -13Q137 -13 110 14T83 79Q83 120 110 148T179 177Q218 177 245 150T272 83Z" />
<glyph unicode="&quot;" glyph-name="quotedbl" horiz-adv-x="320" d="M270 427H188V659H270V427ZM132 427H50V659H132V427Z" />
<glyph unicode="#" glyph-name="numbersign" horiz-adv-x="561" d="M520 376H418L407 294H494V208H393L362 0H274L305 208H221L190 0H103L134 208H36V294H147L161 376H63V463H173L202 659H287L259 463H343L372 659H460L431 463H520V376ZM331 376H246L235 294H317L331
376Z" />
<glyph unicode="$" glyph-name="dollar" horiz-adv-x="561" d="M503 218Q503 142 454 91T327 28V-68H249V28Q165 28 88 58L57 185Q140 118 244 118Q283 118 310 131T338 180Q338 222 245 268T110 346T67 462Q67 536 119 580T249 632V710H327V632Q382 627 435 608V505Q409
522 375 534T310 546Q280 546 257 532T233 488Q233 464 249 452T299 424L368 391Q432 362 467 322T503 218Z" />
<glyph unicode="%" glyph-name="percent" horiz-adv-x="821" d="M339 466Q339 426 332 392T304 326T250 276T178 256Q145 256 114 272T62 316T33 383T23 462Q23 544 64 605T183 667Q260 667 299 607T339 466ZM644 659L265 0H177L554 659H644ZM794 203Q794 162
787 128T759 65Q738 31 705 12T633 -8Q600 -8 569 8T517 53T487 119T477 199Q477 280 518 341T638 402Q714 402 754 343T794 203ZM234 471Q234 517 225 556T183 596Q157 596 143 560T128 456Q128 409 138 368T180 327Q204 327 219 366T234 471ZM689 206Q689 252
680 291T638 331Q612 331 598 295T583 192Q583 145 593 104T635 63Q666 63 677 112T689 206Z" />
<glyph unicode="&amp;" glyph-name="ampersand" horiz-adv-x="821" d="M677 -5Q609 -5 560 11T465 70Q426 24 377 6T259 -13Q215 -13 176 -4T101 30T44 92T22 174Q22 220 53 269T167 375Q122 426 105 461T88 526Q88 599 144 635T278 671Q314 671 339 666T393 643T438
597T456 534Q456 490 436 461T374 393L474 293Q566 202 658 131T847 11L677 -5ZM333 527Q333 546 320 559T288 572Q273 572 262 563T251 538Q251 522 260 511T296 468Q317 486 325 499T333 527ZM398 136L245 293Q224 276 214 254T204 202Q204 153 233 121T310 89Q338
89 359 100T398 136Z" />
<glyph unicode="&apos;" glyph-name="quotesingle" horiz-adv-x="195" d="M132 427H50V659H132V427Z" />
<glyph unicode="(" glyph-name="parenleft" horiz-adv-x="280" d="M272 -121H191Q126 -38 92 65T57 276Q57 380 92 487T191 675H272Q224 587 199 485T174 281Q174 66 272 -121Z" />
<glyph unicode=")" glyph-name="parenright" horiz-adv-x="280" d="M227 276Q227 168 193 65T93 -121H12Q110 66 110 281Q110 386 86 486T12 675H93Q156 595 191 489T227 276Z" />
<glyph unicode="*" glyph-name="asterisk" horiz-adv-x="420" d="M351 528L324 530Q309 530 294 527T254 516L266 501Q283 481 295 471T330 453L250 395Q248 418 239 438T214 480L208 482Q194 462 185 441T172 396L93 453Q115 461 127 469T155 495L167 511L166
518Q137 527 106 527Q90 527 68 522L101 615Q114 599 134 587T179 567L185 570Q185 597 180 617T159 659H259Q247 643 242 619T236 572L240 567Q277 579 293 590T318 619L351 528Z" />
<glyph unicode="+" glyph-name="plus" horiz-adv-x="601" d="M534 191H342V0H257V191H66V277H257V468H342V277H534V191Z" />
<glyph unicode="," glyph-name="comma" horiz-adv-x="280" d="M234 76Q234 39 214 -2T171 -73T135 -114T86 -125L40 -122Q75 -90 97 -62T130 -1Q95 -1 70 24T45 84Q45 123 73 150T140 177Q181 177 207 148T234 76Z" />
<glyph unicode="-" glyph-name="hyphen" horiz-adv-x="440" d="M400 316L349 243Q347 240 335 222T316 199T294 195H280H161Q126 195 99 192T40 180L91 253Q93 256 105 274T124 297T146 301H160H279Q314 301 341 304T400 316Z" />
<glyph unicode="." glyph-name="period" horiz-adv-x="280" d="M234 83Q234 42 206 15T136 -13Q99 -13 72 14T45 79Q45 120 72 148T141 177Q180 177 207 150T234 83Z" />
<glyph unicode="/" glyph-name="slash" horiz-adv-x="440" d="M436 671L123 -126H3L319 671H436Z" />
<glyph unicode="0" glyph-name="zero" horiz-adv-x="561" d="M544 335Q544 269 530 211T482 102T395 19T281 -13Q221 -13 167 16T81 93T33 204T17 328Q17 388 30 446T75 557T163 642T283 675Q404 675 458 601T528 464T544 335ZM367 348Q367 456 346 507T282 558Q222
558 207 490T191 317Q191 244 208 176T277 107Q330 107 348 187T367 348Z" />
<glyph unicode="1" glyph-name="one" horiz-adv-x="561" d="M139 0Q179 27 189 57T199 143V485L100 512Q193 542 258 578T372 675L375 138Q375 82 382 52T426 3L139 0Z" />
<glyph unicode="2" glyph-name="two" horiz-adv-x="561" d="M537 145L490 0H17L170 251L247 391Q265 424 277 452T289 505Q289 535 269 553T218 571Q187 571 150 558T59 505L101 642Q182 675 277 675Q358 675 422 631T486 509Q486 464 468 423T408 307L279 105Q295
101 316 99T358 97Q408 97 444 107T537 145Z" />
<glyph unicode="3" glyph-name="three" horiz-adv-x="561" d="M519 207Q519 98 428 43T220 -13Q184 -13 146 -8T68 6L40 127Q116 85 195 85Q250 85 288 119T326 208Q326 261 286 292Q263 308 238 313T176 318H129V407H150Q212 407 251 425T290 499Q290 540 263
560T193 580Q163 580 128 569T57 539L90 651Q134 663 172 669T254 675Q295 675 329 668T398 641T455 591T478 520Q478 471 447 433T367 382Q433 367 476 321T519 207Z" />
<glyph unicode="4" glyph-name="four" horiz-adv-x="581" d="M537 142H459V132Q459 79 464 57T499 3L236 0Q260 18 271 41T283 124V142H-25L249 659H460V230Q496 230 523 237T574 265L537 142ZM283 230V536L120 230H283Z" />
<glyph unicode="5" glyph-name="five" horiz-adv-x="561" d="M534 219Q534 169 511 124T447 47T357 2T253 -13Q201 -13 165 -8T76 8L43 124Q79 104 121 92T202 79Q262 79 300 114T339 210Q339 278 298 311T185 345Q156 345 125 340T64 327L81 659H478V528Q450
549 407 556T316 563Q298 563 269 561T234 558L228 431Q255 439 289 439Q393 439 463 380T534 219Z" />
<glyph unicode="6" glyph-name="six" horiz-adv-x="561" d="M546 225Q546 117 474 52T290 -13Q164 -13 93 64T21 267Q21 356 57 429T162 559T314 645T495 675L457 592Q198 522 198 257Q198 193 219 140T293 86Q336 86 353 125T371 214Q371 267 349 308T278 349Q255
349 237 339L307 438L341 440Q433 440 489 379T546 225Z" />
<glyph unicode="7" glyph-name="seven" horiz-adv-x="561" d="M549 659L355 147Q346 125 337 99T328 58Q328 42 336 28T359 3L100 0L326 552Q300 558 267 561T205 564Q148 564 107 555T24 518L72 659H549Z" />
<glyph unicode="8" glyph-name="eight" horiz-adv-x="561" d="M553 194Q553 89 476 38T287 -13Q235 -13 192 -5T105 27T36 89T10 179Q10 236 42 275T130 334Q83 361 57 400T30 491Q30 538 52 576T112 635T193 666T285 675Q326 675 366 668T441 641T501 583T527
501Q527 454 501 421T428 370Q489 341 521 300T553 194ZM384 480Q384 525 357 555T284 586Q254 586 232 570T209 524Q209 487 238 468T328 421L352 410Q367 421 375 440T384 480ZM369 161Q369 197 343 216T263 261L201 289Q150 259 150 197Q150 147 184 114T269
81Q308 81 338 102T369 161Z" />
<glyph unicode="9" glyph-name="nine" horiz-adv-x="561" d="M539 391Q539 303 502 228T397 96T248 9T82 -21L64 -20L102 63Q361 133 361 400Q361 464 341 519T267 575Q223 575 206 535T188 445Q188 391 210 350T281 308Q304 308 322 318L252 218L230 216Q185
216 149 227T81 267T31 340T14 433Q14 543 86 609T269 675Q395 675 467 597T539 391Z" />
<glyph unicode=":" glyph-name="colon" horiz-adv-x="280" d="M235 346Q235 305 207 278T137 250Q100 250 73 277T46 342Q46 383 73 411T142 440Q181 440 208 413T235 346ZM235 83Q235 42 207 15T137 -13Q100 -13 73 14T46 79Q46 120 73 148T142 177Q181 177 208
150T235 83Z" />
<glyph unicode=";" glyph-name="semicolon" horiz-adv-x="280" d="M230 346Q230 305 202 278T132 250Q95 250 68 277T41 342Q41 383 68 411T137 440Q176 440 203 413T230 346ZM230 76Q230 39 210 -2T167 -73T131 -114T82 -125L36 -122Q71 -90 93 -62T126 -1Q91
-1 66 24T41 84Q41 123 69 150T136 177Q177 177 203 148T230 76Z" />
<glyph unicode="&lt;" glyph-name="less" horiz-adv-x="601" d="M550 0L51 199V270L550 470V396L135 234L550 74V0Z" />
<glyph unicode="=" glyph-name="equal" horiz-adv-x="601" d="M534 263H66V349H534V263ZM534 119H66V205H534V119Z" />
<glyph unicode="&gt;" glyph-name="greater" horiz-adv-x="601" d="M550 199L51 0V74L465 234L51 396V470L550 270V199Z" />
<glyph unicode="?" glyph-name="question" horiz-adv-x="460" d="M423 490Q423 402 334 334T245 233L249 209H117L114 245Q114 297 176 368T238 472Q238 515 207 539T130 563Q105 563 79 554T27 530L68 653Q96 666 125 670T193 675Q241 675 279 665T370 615T423
490ZM286 83Q286 42 258 15T188 -13Q151 -13 124 14T97 79Q97 120 124 148T193 177Q232 177 259 150T286 83Z" />
<glyph unicode="@" glyph-name="at" horiz-adv-x="781" d="M739 405Q739 303 665 226T483 149Q455 149 435 161T414 198Q388 178 361 165T303 152Q251 152 224 184T196 267Q196 354 257 436T407 518Q429 518 445 512T478 489L484 503H596L507 286Q500 273 496
261T491 240Q491 231 497 227T515 223Q541 223 566 239T627 295T662 401Q662 449 644 486T587 550T501 592T406 607Q285 607 198 525T111 330Q111 211 198 134T413 56Q494 56 563 87T672 179H738Q703 85 613 36T410 -13Q335 -13 270 9T151 78T65 192T34 330Q34
400 61 462T142 574T264 650T411 675Q473 675 530 659T635 606T710 517T739 405ZM443 427Q443 443 428 443Q392 443 352 364T312 244Q312 223 330 223Q358 223 400 309T443 427Z" />
<glyph unicode="A" glyph-name="A" horiz-adv-x="721" d="M718 0H415Q435 16 445 29T456 64Q456 78 454 86T448 102L415 199H217L193 131Q188 115 182 93T175 59Q175 44 180 34T211 3L6 0Q33 27 46 51T75 118L213 518Q222 543 228 564T235 598Q235 617 225 630T197
656L442 659L630 147L632 143Q653 88 662 67T718 3V0ZM382 292L313 489L246 292H382Z" />
<glyph unicode="B" glyph-name="B" horiz-adv-x="581" d="M562 203Q562 110 508 64T415 9T312 0H19Q44 18 52 45T61 110V143V517V550Q61 600 51 621T19 656L317 659Q367 659 397 654T457 625T506 571T524 502Q524 454 495 422T417 374Q482 365 522 317T562 203ZM338
488Q338 521 322 543T275 566Q261 566 246 560V406Q260 402 265 402Q298 402 318 428T338 488ZM381 206Q381 316 270 316H246V106Q264 94 290 94Q336 94 358 126T381 206Z" />
<glyph unicode="C" glyph-name="C" horiz-adv-x="661" d="M655 157L605 11Q558 -2 510 -7T405 -13Q322 -13 258 5T137 73T49 189T19 334Q19 405 47 472T129 586T254 653T407 675L559 662L566 522Q489 574 398 574Q303 574 263 510T222 342Q222 232 276 162T438
92Q492 92 544 109T655 157Z" />
<glyph unicode="D" glyph-name="D" horiz-adv-x="681" d="M663 326Q663 252 632 183T543 67T420 10T241 0H16Q42 18 50 45T58 110V143V450V485V501Q58 573 52 607T16 656L228 659Q345 659 406 651T530 599T628 482T663 326ZM468 326Q468 418 431 485T309 553Q295
553 279 552T243 546V107Q254 103 269 101T297 99Q345 99 376 115T429 168T459 245T468 326Z" />
<glyph unicode="E" glyph-name="E" horiz-adv-x="501" d="M496 151L456 0H13Q38 18 46 45T55 109V142V517V550Q55 600 45 621T13 656L363 659H375Q395 659 405 664L408 519Q395 540 372 550T296 561H272H240V398H333Q359 398 370 403H375V263H370Q362 286 342
292T288 299H273H240V111Q261 103 288 100T345 96Q394 96 429 107T491 151H496Z" />
<glyph unicode="F" glyph-name="F" horiz-adv-x="420" d="M410 520Q394 546 369 553T303 561H274H242V398H315Q341 398 352 403H357V263H352Q344 288 323 293T262 299L242 300V146Q242 89 249 60T286 3L15 0Q40 18 48 45T57 110V143V517V550Q57 600 47 621T15
656L365 659Q376 659 387 659T407 665L410 520Z" />
<glyph unicode="G" glyph-name="G" horiz-adv-x="621" d="M608 18Q553 3 502 -5T394 -13Q230 -13 124 76T18 327Q18 486 124 580T390 675Q473 675 546 655V516H541Q517 539 475 554T393 569Q299 569 253 511T207 356Q207 246 251 169T395 91Q422 91 435 94V242Q435
282 429 300T397 339L608 342V18Z" />
<glyph unicode="H" glyph-name="H" horiz-adv-x="661" d="M376 0Q402 18 410 45T418 110V143V300H239V143V110Q239 60 249 39T281 3L12 0Q38 18 46 45T54 110V143V516V549Q54 599 44 620T12 656L281 659Q260 645 250 624T239 555V516V401H418V516V549Q418 599
408 620T376 656L646 659Q620 641 612 614T604 549V516V143V110Q604 60 614 39T646 3L376 0Z" />
<glyph unicode="I" glyph-name="I" horiz-adv-x="300" d="M15 0Q40 18 48 45T57 109V142V516V549Q57 599 47 620T15 656L284 659Q258 641 250 614T242 549V516V142V109Q242 59 252 38T284 3L15 0Z" />
<glyph unicode="J" glyph-name="J" horiz-adv-x="300" d="M244 516V27Q244 -41 229 -76T163 -142T68 -191T-20 -209Q14 -164 33 -116T56 -30T59 79V516V549Q59 599 49 620T17 656L286 659Q260 641 252 614T244 549V516Z" />
<glyph unicode="K" glyph-name="K" horiz-adv-x="661" d="M353 114L249 293V143V110Q249 60 259 39T291 3L22 0V3Q48 19 56 46T64 110V143V516V549Q64 599 54 620T22 656L291 659Q265 641 257 614T249 549V516V362L374 522Q398 551 409 567T420 602Q420 619 408
633T380 656L626 659L404 391L608 70Q621 48 634 33T666 3H581Q468 3 433 21T353 114Z" />
<glyph unicode="L" glyph-name="L" horiz-adv-x="501" d="M490 140L452 0H16Q41 18 49 45T58 109V142V516V549Q58 599 48 620T16 656L285 659Q259 641 251 614T243 548V515V113Q265 103 291 100T348 96Q392 96 424 105T490 140Z" />
<glyph unicode="M" glyph-name="M" horiz-adv-x="881" d="M604 0Q619 17 628 36T636 74L600 425L466 -11Q444 -6 420 6T368 37T327 80T293 159L195 425L158 80Q156 55 167 35T202 3L5 0Q33 25 42 55T57 143L105 564V576Q105 623 67 656L297 659L445 272L562 656L801
659Q791 648 779 634T766 599V588L813 154Q819 95 828 62T868 3L604 0Z" />
<glyph unicode="N" glyph-name="N" horiz-adv-x="701" d="M634 513V-21Q609 -21 579 -10T512 20T452 58T371 154L179 410L176 146Q176 89 182 61T220 3L27 0Q57 30 64 60T72 146V491Q72 555 63 583T14 656L222 659L530 253V513Q530 566 523 597T485 656L678 659Q649
629 642 598T634 513Z" />
<glyph unicode="O" glyph-name="O" horiz-adv-x="781" d="M766 332Q766 174 657 81T389 -13Q232 -13 129 81T25 331Q25 486 134 580T401 675Q565 675 665 585T766 332ZM572 297Q572 402 528 488T389 575Q307 575 263 510T219 358Q219 315 232 263T267 172T324
111T401 87Q440 87 475 105T533 154T564 219T572 297Z" />
<glyph unicode="P" glyph-name="P" horiz-adv-x="521" d="M521 478Q521 378 451 330T275 281H260Q253 281 239 283Q286 303 311 340T336 429Q336 488 312 524T233 560V145Q233 89 240 60T277 3L10 0Q36 18 44 45T52 110V143V516V549Q52 599 42 620T10 656L246
659Q315 659 353 656T430 633T495 572T521 478Z" />
<glyph unicode="Q" glyph-name="Q" horiz-adv-x="721" d="M857 -95Q824 -124 777 -142T687 -161Q625 -161 565 -121T417 -8L353 -13Q210 -13 118 88T25 333Q25 485 125 580T378 675Q449 675 508 654T615 585T689 471T715 335Q715 256 685 184T596 62Q679 -19 732
-57T857 -95ZM530 285Q530 334 522 378T493 470T442 547T361 576Q282 576 248 518T213 376Q213 270 254 178T388 86Q463 86 496 145T530 285Z" />
<glyph unicode="R" glyph-name="R" horiz-adv-x="621" d="M629 6L490 -3Q445 -3 416 4T356 64L240 282V143V110Q240 60 250 39T282 3L13 0Q39 18 47 45T55 110V143V516V549Q55 599 45 620T13 656L309 659Q361 659 386 656T472 621T533 483Q533 429 500 389T413
325L533 126Q554 90 577 60T629 6ZM348 462Q348 489 339 511T313 544T281 558T250 562H240V335Q286 343 317 379T348 462Z" />
<glyph unicode="S" glyph-name="S" horiz-adv-x="521" d="M512 201Q512 99 451 54T344 -2T237 -13Q136 -13 43 23L10 167Q52 133 109 111T220 89Q262 89 294 105T326 160Q326 207 221 260T69 349T21 481Q21 525 40 563T94 626T175 663T269 675Q359 675 437 645V528Q402
551 368 563T296 575Q262 575 236 560T209 511Q209 479 232 464T303 427T381 391T442 348T493 284T512 201Z" />
<glyph unicode="T" glyph-name="T" horiz-adv-x="501" d="M504 659L469 508Q458 532 438 542T387 552Q371 552 360 551T336 546V145Q336 89 343 60T380 3L109 0Q135 18 143 45T151 110V143V546Q142 548 127 549T101 550Q42 550 -12 513L-19 508L20 662L39 659H504Z" />
<glyph unicode="U" glyph-name="U" horiz-adv-x="681" d="M427 0V81Q398 38 353 13T253 -13Q209 -13 173 0T107 44T69 109T60 200V516V549Q60 599 50 620T18 656L284 659Q258 641 250 614T242 549V516V242Q242 200 245 177T261 136T292 109T329 101Q389 101 408
152T427 275V516V549Q427 599 417 620T385 656L653 659Q627 641 619 614T611 549V516V143V110Q611 60 621 39T653 3L427 0Z" />
<glyph unicode="V" glyph-name="V" horiz-adv-x="641" d="M472 144L415 -21Q382 -10 350 1T284 32T233 77T197 149L45 569Q34 600 24 619T-4 656L222 659L221 651Q221 631 235 590T252 538L379 169L497 532Q506 555 509 567T512 590Q512 613 501 628T467 656L647
659L472 144Z" />
<glyph unicode="W" glyph-name="W" horiz-adv-x="961" d="M796 144L747 -13Q721 -7 697 3T641 30T591 74T560 144L485 386L381 -11Q356 -8 329 2T266 33T214 82T179 172L70 547Q59 586 46 610T5 656L222 659L344 202L417 476Q422 495 427 518T432 553Q432 577
419 609T387 656L598 659Q594 645 594 639Q594 619 597 602T617 531L713 202L800 501Q809 530 813 547T817 581Q817 602 808 621T783 656L952 659L796 144Z" />
<glyph unicode="X" glyph-name="X" horiz-adv-x="661" d="M666 0H430L287 256L205 128Q197 114 190 99T182 70Q182 50 190 32T213 3L-8 0L229 344L104 561Q77 608 62 625T24 656L259 659L374 446L424 524Q436 542 446 564T457 603Q457 619 446 635T420 656L640
659L430 356L558 146Q603 72 621 48T666 3V0Z" />
<glyph unicode="Y" glyph-name="Y" horiz-adv-x="561" d="M389 298V146Q389 89 395 61T433 3L162 0Q187 18 195 46T204 111V144V298L55 579Q44 599 31 620T-8 656L224 659L340 419L396 534Q406 555 412 571T419 603Q419 638 388 656L569 659L389 298Z" />
<glyph unicode="Z" glyph-name="Z" horiz-adv-x="601" d="M593 158L537 0H25H-2L296 560L217 565Q169 565 130 554T43 517L96 659H556L259 105L380 96Q447 96 490 109T593 158Z" />
<glyph unicode="[" glyph-name="bracketleft" horiz-adv-x="300" d="M266 -121H46Q66 -104 73 -80T80 -23V-2V558V574Q80 610 74 634T46 675H266V609H194V-55H266V-121Z" />
<glyph unicode="\" glyph-name="backslash" horiz-adv-x="581" d="M448 0H355L75 671H167L448 0Z" />
<glyph unicode="]" glyph-name="bracketright" horiz-adv-x="300" d="M250 -121H30V-55H102V609H30V675H250Q227 656 222 629T216 558V-2Q216 -50 220 -75T250 -121Z" />
<glyph unicode="^" glyph-name="asciicircum" horiz-adv-x="601" d="M570 160H486L297 569L114 160H31L257 659H339L570 160Z" />
<glyph unicode="_" glyph-name="underscore" horiz-adv-x="741" d="M741 -130H0V-74H741V-130Z" />
<glyph unicode="`" glyph-name="grave" horiz-adv-x="420" d="M358 543L300 508L66 595L116 681L358 543Z" />
<glyph unicode="a" glyph-name="a" horiz-adv-x="526" d="M538 78L496 -10L456 -13Q412 -13 380 -4T319 33T283 87T275 163V184V217L242 202Q214 189 200 177T185 141Q185 114 202 95T246 76L267 78L223 -10L172 -13Q142 -13 114 -8T59 13T15 61T-3 129Q-3 235
136 272T275 339Q275 360 254 371T210 382Q146 382 83 348L130 464Q159 471 190 474T258 478Q299 478 334 469T400 437T442 376T453 284V203Q453 135 465 107T538 78Z" />
<glyph unicode="b" glyph-name="b" horiz-adv-x="607" d="M567 250Q567 127 499 71T373 1T249 -13Q194 -13 144 -7T30 14Q47 31 51 46T55 93V554V571Q55 612 47 629T20 663L154 666Q180 666 195 668T226 682L229 165V85Q239 82 244 81T260 80Q321 80 350 121T380
227Q380 298 350 342T254 387L301 473Q313 477 322 478T347 479Q388 479 430 461T503 414T550 340T567 250Z" />
<glyph unicode="c" glyph-name="c" horiz-adv-x="506" d="M463 25Q384 -13 289 -13Q181 -13 105 53T29 225Q29 345 110 411T314 478Q332 478 375 473T433 468V351Q407 368 382 376T327 385Q279 385 257 358T230 305T224 249Q224 215 234 181T263 126T306 97T359
88Q394 88 429 101T492 135L463 25Z" />
<glyph unicode="d" glyph-name="d" horiz-adv-x="607" d="M364 0V284Q364 308 363 319T351 345Q333 375 297 375Q250 375 232 333T213 237Q213 203 220 174T245 122Q277 85 323 85H337L290 -1Q282 -5 272 -6T248 -7Q152 -7 89 63T26 230Q26 333 87 406T249 479Q308
479 364 444V554Q364 599 359 620T327 663L449 666H461Q489 666 503 668T536 682L539 165V147Q539 90 546 61T584 3L364 0Z" />
<glyph unicode="e" glyph-name="e" horiz-adv-x="546" d="M521 132L481 18Q446 3 404 -5T322 -13Q262 -13 211 -3T117 39T51 122T28 234Q28 340 99 409T276 478Q395 478 455 414T516 230H202Q202 164 242 123T350 81Q391 81 432 94T521 132ZM343 316Q343 349 327
369T276 390Q243 390 225 370T202 316H343Z" />
<glyph unicode="f" glyph-name="f" horiz-adv-x="343" d="M400 668L332 565Q322 573 312 577T291 582Q256 582 247 562T237 504V489V468H351V350Q338 362 323 366T291 371H266H237V112Q237 67 242 46T273 3L28 0Q54 23 58 43T63 112V371H-5L63 468V481Q63 537
73 571T118 633T191 672T278 682Q336 682 355 680T400 668Z" />
<glyph unicode="g" glyph-name="g" horiz-adv-x="526" d="M542 -45Q542 -92 514 -127T444 -180T356 -203T255 -209Q216 -209 179 -206T104 -192T38 -158T9 -96Q9 -56 40 -32T113 -8Q136 -8 153 -11T189 -25Q171 -28 161 -38T150 -68Q150 -93 171 -108T244 -124Q288
-124 320 -109T353 -58V-49Q352 -38 347 -27T329 0T298 19T256 24Q238 24 209 22T174 19Q137 19 122 39T97 78T87 108Q87 118 96 123T125 135L154 146Q98 167 66 205T33 300Q33 383 96 430T245 478Q265 478 282 476T324 467L539 473L493 379H446Q463 364 473 340T484
291Q484 255 468 227T422 177T351 143T271 130Q252 130 236 126T220 108Q220 96 236 96L254 97L340 102Q374 102 408 96T473 73T522 25T542 -45ZM315 293Q315 330 301 359T254 388Q223 388 209 366T195 310Q195 264 212 242T256 220Q286 220 300 241T315 293Z"
/>
<glyph unicode="h" glyph-name="h" horiz-adv-x="587" d="M317 0Q340 20 346 38T352 90V111V270V297Q352 312 351 322T339 352T291 373Q271 373 255 363T236 339T231 310T230 287V261V111Q230 64 234 44T265 3L21 0Q47 23 51 43T56 111V554V572Q56 605 50 624T21
663L156 666Q178 666 194 669T227 682L230 435Q253 458 286 468T357 478Q402 478 437 465T494 426T522 374T528 314V278V111Q528 64 532 44T564 3L317 0Z" />
<glyph unicode="i" glyph-name="i" horiz-adv-x="283" d="M230 584Q230 543 201 514T131 485Q94 485 67 513T39 579Q39 620 66 649T135 679Q174 679 202 651T230 584ZM18 0Q43 23 48 45T54 111V353V371Q54 404 48 423T19 462L157 465Q178 465 194 468T225 480L228
111Q228 65 232 45T264 3L18 0Z" />
<glyph unicode="j" glyph-name="j" horiz-adv-x="263" d="M226 584Q226 543 197 514T127 485Q90 485 63 513T35 579Q35 620 62 649T131 679Q170 679 198 651T226 584ZM224 24V-6Q224 -60 214 -95T166 -156T74 -197T-26 -213L-21 -208Q30 -154 39 -122T49 -7V321Q49
331 49 341T50 361Q50 397 42 421T7 462L145 465Q174 465 189 467T221 480L224 24Z" />
<glyph unicode="k" glyph-name="k" horiz-adv-x="567" d="M406 -5Q375 -5 358 11T320 62L227 215V112Q227 57 234 39T263 3L17 0Q37 18 45 38T53 112V554V571Q53 613 45 630T17 663L158 666Q195 666 224 682L227 265L308 358Q318 370 329 382Q339 396 339 410Q339
427 329 440T302 462L536 465L379 288L513 80Q529 54 542 36T581 3Q548 1 488 -2T406 -5Z" />
<glyph unicode="l" glyph-name="l" horiz-adv-x="283" d="M16 0Q38 21 44 40T50 90V111V553V576Q50 609 45 625T18 663L131 666Q181 666 222 682L225 111Q225 65 229 45T260 3L16 0Z" />
<glyph unicode="m" glyph-name="m" horiz-adv-x="849" d="M584 0Q604 20 611 40T618 90V111V278V293Q618 331 609 352T566 373Q528 373 519 348T510 278V111Q510 65 514 45T545 3L300 0Q320 20 327 40T334 90V111V263V285Q334 327 325 350T280 373Q247 373 237
351T226 290V263V111Q226 65 230 45T262 3L17 0Q43 24 47 44T52 111V353V371Q52 404 46 423T17 462L158 465Q193 465 223 480L226 419Q270 478 348 478Q422 478 470 419Q498 449 536 463T618 478Q652 478 684 469T744 438T782 387T793 314V111Q793 65 797 45T828
3L584 0Z" />
<glyph unicode="n" glyph-name="n" horiz-adv-x="587" d="M318 0Q341 20 347 38T353 90V111V282Q353 308 351 320T339 346Q322 375 287 375Q257 375 241 351Q232 340 230 322T227 282V111Q227 64 231 44T263 3L17 0Q42 22 47 44T53 111V353V370Q53 412 45 429T17
462L153 465Q173 465 188 468T224 480L227 424Q248 451 280 464T351 478Q397 478 432 465T493 422T524 363T529 278V111Q529 64 533 44T565 3L318 0Z" />
<glyph unicode="o" glyph-name="o" horiz-adv-x="587" d="M553 238Q553 122 478 55T284 -13Q172 -13 101 52T29 228Q29 343 102 410T292 478Q394 478 473 408T553 238ZM383 217Q383 303 357 342T288 381Q240 381 220 344T199 255Q199 183 218 132T296 81Q347 81
365 120T383 217Z" />
<glyph unicode="p" glyph-name="p" horiz-adv-x="607" d="M571 240Q571 192 556 145T509 59T432 3T328 -14L285 -10L248 84Q256 82 263 81T280 80Q339 80 360 120T381 225Q381 282 364 328T298 374Q250 374 238 343T226 255V-99Q226 -146 230 -166T262 -207L17
-210Q43 -187 47 -167T52 -99V353V370Q52 411 44 428T17 462L155 465Q175 465 191 468T223 480L226 416Q248 447 282 462T356 478Q456 478 513 411T571 240Z" />
<glyph unicode="q" glyph-name="q" horiz-adv-x="607" d="M337 -210Q363 -186 367 -166T372 -99V361Q363 366 348 368T319 370Q266 370 240 330T213 233Q213 172 241 125T327 78H339L293 -7Q272 -13 248 -13Q148 -13 88 53T28 220Q28 339 93 391T202 454T309 465H582Q559
443 553 424T547 370V353V-99Q547 -145 551 -165T582 -207L337 -210Z" />
<glyph unicode="r" glyph-name="r" horiz-adv-x="364" d="M377 351Q366 354 353 357T324 360Q277 360 256 338T233 306T230 281V264V111Q230 65 235 45T265 3L21 0Q47 23 51 43T56 111V353V370Q56 411 48 429T21 462L163 465Q201 465 227 480L230 406Q241 439
270 458T339 478L377 475V351Z" />
<glyph unicode="s" glyph-name="s" horiz-adv-x="485" d="M466 153Q466 62 388 25T208 -13Q171 -13 131 -7T38 10L16 126Q58 101 104 86T195 71Q223 71 245 80T267 115Q267 142 184 179T63 240T25 323Q25 363 44 393T97 444T169 471T254 478Q291 478 330 473T410
459V353Q381 373 349 383T281 393Q258 393 240 387T221 361Q221 340 236 331T279 314T335 297Q366 286 395 267T445 219T466 153Z" />
<glyph unicode="t" glyph-name="t" horiz-adv-x="323" d="M325 80L281 -6Q272 -6 244 -9T201 -13Q168 -13 133 -4T75 26T45 74T38 139V157V372H-22V441Q42 441 89 492T143 610H213V465H325V341Q307 360 292 365T253 371H238H213V182Q213 145 217 129T241 100T280
84T325 80Z" />
<glyph unicode="u" glyph-name="u" horiz-adv-x="587" d="M350 0V54Q302 -13 212 -13Q178 -13 150 -5T97 26T65 78T58 158V353V371Q58 413 50 429T22 462L162 465Q183 465 199 468T229 480L232 220V186Q232 131 246 111T289 91Q321 91 333 109T347 140T350 175V190V353V371Q350
404 344 423T315 462L453 465Q474 465 491 468T523 480L526 111Q526 64 530 44T561 3L350 0Z" />
<glyph unicode="v" glyph-name="v" horiz-adv-x="465" d="M462 465L275 -24Q262 -23 247 -17T217 -2Q163 26 144 50T102 136L18 361Q2 403 -7 422T-39 462L86 465H104Q122 465 133 467T155 480L264 186L322 346Q336 381 338 389T340 412Q340 441 317 462L462 465Z" />
<glyph unicode="w" glyph-name="w" horiz-adv-x="809" d="M796 465L610 -16Q582 -10 549 3T497 34T465 83T428 188L410 241L307 -16Q279 -7 257 1T214 23T185 48T166 86L75 328Q50 396 39 417T7 462L124 465H136Q160 465 173 467T203 480L301 200L362 370Q354
432 308 462L510 465L599 201L648 334Q657 355 662 370T667 397Q667 414 659 432T636 462L796 465Z" />
<glyph unicode="x" glyph-name="x" horiz-adv-x="526" d="M297 0Q290 23 282 38T254 89L217 153L178 94Q169 81 163 70T157 47Q157 31 164 21T180 3L2 0L171 232L75 384Q51 421 41 435T9 462L229 465Q236 403 292 340L303 356Q321 381 329 397T337 426Q337 437
332 446T318 462L485 465L342 265L457 79Q479 44 489 30T520 3L297 0Z" />
<glyph unicode="y" glyph-name="y" horiz-adv-x="485" d="M297 -37Q274 -99 255 -128T190 -182Q159 -197 119 -203T38 -210L-7 -207L73 -106Q87 -110 95 -110Q148 -110 175 -79T219 10Q188 30 170 54T134 119L29 370Q15 403 1 425T-35 462L187 465Q189 451 196
434T206 407L215 384L293 192L349 353Q351 358 357 377T363 412Q363 428 357 438T338 462L487 465L297 -37Z" />
<glyph unicode="z" glyph-name="z" horiz-adv-x="485" d="M487 113L446 0H-7L210 371Q182 378 149 378Q115 378 89 373T33 353L70 465H461L250 97Q293 87 341 87Q400 87 430 93T487 113Z" />
<glyph unicode="{" glyph-name="braceleft" horiz-adv-x="300" d="M269 -121H235Q207 -121 186 -117T143 -97T113 -57T106 3V175Q106 202 104 217T83 252T33 279Q78 290 92 312T106 383V534Q106 576 110 599T131 640T173 665T246 674H269Q229 662 214 638T198
569V407Q198 350 183 320T118 279Q166 268 182 240T198 159V-14Q198 -59 212 -83T269 -121Z" />
<glyph unicode="|" glyph-name="bar" horiz-adv-x="601" d="M342 0H257V671H342V0Z" />
<glyph unicode="}" glyph-name="braceright" horiz-adv-x="300" d="M270 279Q238 273 221 253T200 218T197 175V3Q197 -44 188 -64T158 -98T114 -116T59 -121H34Q76 -107 90 -84T105 -14V159Q105 213 121 240T185 279Q137 289 121 320T105 407V569Q105 612 89
637T34 674H57Q97 674 123 669T168 644T192 598T197 534V383Q197 335 211 313T270 279Z" />
<glyph unicode="~" glyph-name="asciitilde" horiz-adv-x="601" d="M564 272Q524 216 494 189T413 162Q390 162 371 167T317 185L275 201Q241 215 227 219T195 224Q164 224 148 207T103 147L37 190Q81 261 115 283T192 306Q235 306 312 275T413 244Q439 244 454
260T496 314L564 272Z" />
</font>
</defs>
</svg>
